<?xml version="1.0" encoding="UTF-8"?>
<!-- Uploaded to: SVG Find, www.svgrepo.com, Generator: SVG Find Mixer Tools -->
<svg fill="#000000" width="800px" height="800px" version="1.1" viewBox="144 144 512 512" xmlns="http://www.w3.org/2000/svg">
 <g>
  <path d="m304.07 386.67c-0.24219 0.24219-0.42969 0.53516-0.66016 0.78906h-0.003906c-4.4961 4.7891-7.5156 10.773-8.6992 17.234-0.082031 0.42969-0.23047 0.85156-0.29297 1.2891l-0.76562 5.4062-9.1016 64.047c-0.66016 4.8125-0.28125 9.707 1.1133 14.359 1.0938 3.7109 2.832 7.2031 5.1328 10.316 1.0195 1.5273 2.1641 2.9688 3.4219 4.3125 6.3594 6.4102 15.016 10.008 24.043 10.004 0.96484 0 1.9414-0.125 2.918-0.21094 0.68359 0 1.3555 0 2.0977-0.125l20.402-2.9297 49.016-7.0117 0.003906 0.003906c4.4609-0.66797 8.7383-2.2148 12.598-4.5469 2.4336-1.4219 4.6758-3.1523 6.6758-5.1445l23.555-23.574 135.07-135.07 0.074218-0.050781 0.52344-0.52344 5.5117-5.5312 23.711-23.711v-0.003906c19.262-19.266 26.785-47.344 19.73-73.656-7.0508-26.316-27.605-46.871-53.922-53.922-26.316-7.0469-54.395 0.47656-73.656 19.742l-188.49 188.5zm207.09-169.93c9.3672-9.3906 22.086-14.664 35.352-14.664 13.262 0 25.98 5.2734 35.348 14.664 1.5195 1.6484 2.9219 3.4023 4.1992 5.2461 9.9609 13.133 12.812 30.332 7.6211 45.973-2.3672 7.3594-6.4297 14.062-11.859 19.566l-20.469 20.469-70.66-70.789z"/>
  <path d="m242.27 621.91h273.85c17.391-0.019531 34.066-6.9375 46.363-19.234 12.297-12.301 19.215-28.973 19.234-46.367v-115.88c0-8.4375-4.5-16.234-11.805-20.453-7.3086-4.2188-16.312-4.2188-23.617 0-7.3086 4.2188-11.809 12.016-11.809 20.453v115.88c-0.007813 4.8711-1.9453 9.5352-5.3906 12.98-3.4414 3.4414-8.1094 5.3789-12.977 5.3867h-273.85c-4.8711-0.003906-9.5391-1.9414-12.984-5.3828-3.4414-3.4453-5.3789-8.1133-5.3867-12.984v-273.86c0.007813-4.8672 1.9453-9.5352 5.3867-12.98 3.4453-3.4453 8.1133-5.3789 12.984-5.3867h115.88c8.4375 0 16.234-4.5 20.453-11.809 4.2188-7.3047 4.2188-16.309 0-23.613-4.2188-7.3086-12.016-11.809-20.453-11.809h-115.88c-17.395 0.019531-34.066 6.9375-46.367 19.234-12.297 12.297-19.215 28.973-19.234 46.363v273.86c0.019532 17.395 6.9375 34.066 19.234 46.367 12.301 12.297 28.973 19.215 46.367 19.234z"/>
 </g>
</svg>